<svg width="21" height="21" viewBox="0 0 21 21" fill="none" xmlns="http://www.w3.org/2000/svg">
<path d="M10.0286 0C10.361 0 10.6799 0.132073 10.915 0.367163C11.1501 0.602253 11.2821 0.921104 11.2821 1.25357V8.775H18.8036C19.136 8.775 19.4549 8.90707 19.69 9.14216C19.9251 9.37725 20.0571 9.6961 20.0571 10.0286C20.0571 10.361 19.9251 10.6799 19.69 10.915C19.4549 11.1501 19.136 11.2821 18.8036 11.2821H11.2821V18.8036C11.2821 19.136 11.1501 19.4549 10.915 19.69C10.6799 19.9251 10.361 20.0571 10.0286 20.0571C9.6961 20.0571 9.37725 19.9251 9.14216 19.69C8.90707 19.4549 8.775 19.136 8.775 18.8036V11.2821H1.25357C0.921104 11.2821 0.602253 11.1501 0.367163 10.915C0.132073 10.6799 0 10.361 0 10.0286C0 9.6961 0.132073 9.37725 0.367163 9.14216C0.602253 8.90707 0.921104 8.775 1.25357 8.775H8.775V1.25357C8.775 0.921104 8.90707 0.602253 9.14216 0.367163C9.37725 0.132073 9.6961 0 10.0286 0Z" fill="white"/>
</svg>
