<svg width="28" height="29" viewBox="0 0 28 29" fill="none" xmlns="http://www.w3.org/2000/svg">
<path d="M12.1331 3.30005C6.98953 3.30005 2.7998 7.48978 2.7998 12.6334C2.7998 17.777 6.98953 21.9667 12.1331 21.9667C14.3699 21.9667 16.424 21.1724 18.0339 19.854L23.6066 25.4266C23.6926 25.5162 23.7956 25.5877 23.9096 25.637C24.0236 25.6862 24.1462 25.7123 24.2704 25.7135C24.3946 25.7148 24.5178 25.6913 24.6327 25.6443C24.7477 25.5974 24.8521 25.528 24.9399 25.4402C25.0277 25.3524 25.0971 25.2479 25.1441 25.133C25.191 25.018 25.2145 24.8948 25.2133 24.7706C25.212 24.6465 25.186 24.5238 25.1367 24.4098C25.0875 24.2958 25.0159 24.1928 24.9264 24.1068L19.3537 18.5342C20.6722 16.9243 21.4665 14.8701 21.4665 12.6334C21.4665 7.48978 17.2767 3.30005 12.1331 3.30005ZM12.1331 5.16672C16.2679 5.16672 19.5998 8.4986 19.5998 12.6334C19.5998 16.7682 16.2679 20.1 12.1331 20.1C7.99836 20.1 4.66647 16.7682 4.66647 12.6334C4.66647 8.4986 7.99836 5.16672 12.1331 5.16672Z" fill="#292929"/>
</svg>
