<svg width="18" height="18" viewBox="0 0 18 18" fill="none" xmlns="http://www.w3.org/2000/svg">
<path fill-rule="evenodd" clip-rule="evenodd" d="M1.1364 2.55061C0.745875 2.16009 0.745875 1.52692 1.1364 1.1364C1.52692 0.745875 2.16009 0.745875 2.55061 1.1364L9.00004 7.58583L15.4495 1.1364C15.84 0.745875 16.4732 0.745875 16.8637 1.1364C17.2542 1.52692 17.2542 2.16009 16.8637 2.55061L10.4143 9.00004L16.8635 15.4493C17.2541 15.8399 17.2541 16.473 16.8635 16.8635C16.473 17.2541 15.8399 17.2541 15.4493 16.8635L9.00004 10.4143L2.55076 16.8635C2.16023 17.2541 1.52707 17.2541 1.13655 16.8635C0.746021 16.473 0.746021 15.8399 1.13655 15.4493L7.58583 9.00004L1.1364 2.55061Z" fill="#232326"/>
</svg>
